<svg width="1769" height="697" xmlns="http://www.w3.org/2000/svg" xmlns:xlink="http://www.w3.org/1999/xlink" xml:space="preserve" overflow="hidden"><g transform="translate(-893 -678)"><g><path d="M1007 990.501C1007 973.103 1021.1 959 1038.5 959L1165.5 959C1182.9 959 1197 973.103 1197 990.501L1197 1116.5C1197 1133.9 1182.9 1148 1165.5 1148L1038.5 1148C1021.1 1148 1007 1133.9 1007 1116.5Z" stroke="#042433" stroke-width="18.3333" stroke-linecap="butt" stroke-linejoin="miter" stroke-miterlimit="8" stroke-opacity="1" fill="none" fill-rule="evenodd"/><path d="M906 896.834C906 873.73 924.73 855 947.834 855L1115.17 855C1138.27 855 1157 873.73 1157 896.834L1157 1064.17C1157 1087.27 1138.27 1106 1115.17 1106L947.834 1106C924.73 1106 906 1087.27 906 1064.17Z" stroke="#042433" stroke-width="18.3333" stroke-linecap="butt" stroke-linejoin="miter" stroke-miterlimit="8" stroke-opacity="1" fill="none" fill-rule="evenodd"/><text fill="#000000" fill-opacity="1" font-family="Arial,Arial_MSFontService,sans-serif" font-style="normal" font-variant="normal" font-weight="400" font-stretch="normal" font-size="330" text-anchor="start" direction="ltr" writing-mode="lr-tb" unicode-bidi="normal" text-decoration="none" transform="matrix(1 0 0 1 1290.61 1101)">Imanect</text></g></g></svg>